<svg id="Layer_1" data-name="Layer 1" xmlns="http://www.w3.org/2000/svg" viewBox="0 0 1029.49544 402.31843">
  <defs>
    <style>
      .cls-1, .cls-2 {
        fill: #fff;
      }

      .cls-2 {
        font-size: 192.19061px;
        font-family: DINAlternate-Bold, DIN Alternate;
        font-weight: 700;
      }

      .cls-3 {
        fill: #2ed13b;
      }
    </style>
  </defs>
  <g>
    <path class="cls-1" d="M369.11377,182.7478C258.04169,182.7478,168,272.78949,168,383.86151c0,111.07208,90.04169,201.11377,201.11377,201.11377,111.072,0,201.11377-90.04169,201.11377-201.11377C570.22754,272.78949,480.18579,182.7478,369.11377,182.7478ZM328.49658,455.22559l-10.74707-32.02247H265.1543l-10.65137,32.02247H232.24658L282.65527,312.0498H300.25l50.40771,143.17579Zm159.248,0H466.74854V365.93408H466.273l-29.02588,68.76123H419.73682l-29.02588-68.76123h-.38086v89.29151H369.334V312.0498h19.78711l39.76368,93.3252,39.00341-93.3252h19.85645ZM291.30957,341.33789l-20.06836,62.63672h40.5166l-20.06787-62.63672Z" transform="translate(-168 -182.7478)"/>
    <text class="cls-2" transform="translate(513.46582 269.21509)">GYMS</text>
    <g>
      <polygon class="cls-3" points="951.59 17.937 1011.649 17.937 1011.649 72.162 1029.495 72.162 1029.495 0.091 951.59 0.091 951.59 17.937"/>
      <polygon class="cls-3" points="484.498 75.794 484.498 17.937 546.617 17.937 546.617 0.091 466.651 0.091 466.651 75.794 484.498 75.794"/>
      <polygon class="cls-3" points="545.587 384.472 484.498 384.472 484.498 333.878 466.651 333.878 466.651 402.318 545.587 402.318 545.587 384.472"/>
      <polygon class="cls-3" points="1011.649 330.247 1011.649 384.472 950.56 384.472 950.56 402.318 1029.495 402.318 1029.495 330.247 1011.649 330.247"/>
    </g>
  </g>
</svg>
