<?xml version="1.0" encoding="utf-8"?>
<!-- Generator: Adobe Illustrator 26.0.3, SVG Export Plug-In . SVG Version: 6.00 Build 0)  -->
<svg version="1.1" id="Layer_1" xmlns="http://www.w3.org/2000/svg" xmlns:xlink="http://www.w3.org/1999/xlink" x="0px" y="0px"
	 viewBox="0 0 75 75" style="enable-background:new 0 0 75 75;" xml:space="preserve">
<style type="text/css">
	.st0{fill:#FFFFFF;filter:url(#Adobe_OpacityMaskFilter);}
	.st1{mask:url(#mask0_00000043442808816765642490000014018293661630749314_);}
	.st2{fill:#2ED13B;}
</style>
<defs>
	<filter id="Adobe_OpacityMaskFilter" filterUnits="userSpaceOnUse">
		<feColorMatrix  type="matrix" values="1 0 0 0 0  0 1 0 0 0  0 0 1 0 0  0 0 0 1 0"/>
	</filter>
</defs>
<mask maskUnits="userSpaceOnUse" id="mask0_00000043442808816765642490000014018293661630749314_">
	<rect class="st0" width="75" height="75"/>
</mask>
<g class="st1">
</g>
<path class="st2" d="M37.5,49.9c2.6,0,4.7-2.1,4.7-4.7s-2.1-4.7-4.7-4.7c-2.6,0-4.7,2.1-4.7,4.7C32.8,47.8,34.9,49.9,37.5,49.9z
	 M37.5,42.7c1.4,0,2.5,1.1,2.5,2.5c0,1.4-1.1,2.5-2.5,2.5c-1.4,0-2.5-1.1-2.5-2.5S36.1,42.7,37.5,42.7z"/>
<path class="st2" d="M58.2,15.4c4.3,0,7.7-3.5,7.7-7.7c0-4.3-3.5-7.7-7.7-7.7c-4.3,0-7.7,3.5-7.7,7.7C50.4,12,53.9,15.4,58.2,15.4z
	 M58.2,2.1c3.1,0,5.6,2.5,5.6,5.6c0,3.1-2.5,5.6-5.6,5.6c-3.1,0-5.6-2.5-5.6-5.6C52.6,4.6,55.1,2.1,58.2,2.1z"/>
<path class="st2" d="M69.6,27.3c-0.6,0-1.1,0.5-1.1,1.1V43c0,0.4-0.3,0.7-0.7,0.7h-2.6V24.9c0-0.6-0.5-1.1-1.1-1.1s-1.1,0.5-1.1,1.1
	v45.3c0,0.4-0.3,0.7-0.7,0.7h-2.5c-0.4,0-0.7-0.3-0.7-0.7v-17c0-0.6-0.5-1.1-1.1-1.1c-0.6,0-1.1,0.5-1.1,1.1v17
	c0,0.4-0.3,0.7-0.7,0.7h-2.5c-0.4,0-0.7-0.3-0.7-0.7V24.9c0-0.6-0.5-1.1-1.1-1.1c-0.6,0-1.1,0.5-1.1,1.1v18.9h-2.6
	c-0.4,0-0.7-0.3-0.7-0.7V24.8c0-3.5,2.9-6.4,6.4-6.4h8c3.5,0,6.4,2.9,6.4,6.4c0,0.6,0.5,1.1,1.1,1.1c0.6,0,1.1-0.5,1.1-1.1
	c0-4.7-3.8-8.5-8.5-8.5h-8c-4.7,0-8.5,3.8-8.5,8.5V43c0,1.6,1.3,2.8,2.8,2.8h2.6v24.3c0,1.6,1.3,2.8,2.8,2.8h2.5
	c0.7,0,1.3-0.2,1.8-0.6c0.5,0.4,1.1,0.6,1.8,0.6h2.5c1.6,0,2.8-1.3,2.8-2.8V45.9h2.6c1.6,0,2.8-1.3,2.8-2.8V28.4
	C70.7,27.8,70.2,27.3,69.6,27.3z"/>
<path class="st2" d="M15.1,22c4.3,0,7.7-3.5,7.7-7.7c0-4.3-3.5-7.7-7.7-7.7c-4.3,0-7.7,3.5-7.7,7.7C7.4,18.5,10.9,22,15.1,22z
	 M15.1,8.7c3.1,0,5.6,2.5,5.6,5.6s-2.5,5.6-5.6,5.6c-3.1,0-5.6-2.5-5.6-5.6C9.5,11.2,12,8.7,15.1,8.7z"/>
<path class="st2" d="M18.6,23h-7C7.4,23,4,26.4,4,30.6v16c0,1.4,1.2,2.6,2.6,2.6h0l-0.7,6.7c0,0.3,0.1,0.6,0.3,0.8
	C6.4,57,6.7,57.1,7,57.1h1.8v13.3c0,1.4,1.2,2.6,2.6,2.6h2.2c0.6,0,1.1-0.2,1.5-0.5c0.4,0.3,1,0.5,1.5,0.5h2.2
	c1.4,0,2.6-1.2,2.6-2.6v-5.9c0-0.6-0.5-1.1-1.1-1.1c-0.6,0-1.1,0.5-1.1,1.1v5.9c0,0.3-0.2,0.5-0.5,0.5h-2.2c-0.3,0-0.5-0.2-0.5-0.5
	V59c0-0.6-0.5-1.1-1.1-1.1S14,58.4,14,59v11.4c0,0.3-0.2,0.5-0.5,0.5h-2.2c-0.3,0-0.5-0.2-0.5-0.5V57.1h8.4v4c0,0.6,0.5,1.1,1.1,1.1
	s1.1-0.5,1.1-1.1v-4h1.8c0.3,0,0.6-0.1,0.8-0.4c0.2-0.2,0.3-0.5,0.3-0.8l-0.7-6.7h0c1.4,0,2.6-1.2,2.6-2.6v-16
	C26.2,26.4,22.8,23,18.6,23z M24.1,46.6c0,0.3-0.2,0.5-0.5,0.5h-0.3l-2-17.8c-0.1-0.6-0.6-1-1.2-0.9c-0.6,0.1-1,0.6-0.9,1.2L22.1,55
	h-1h-0.7H9.8H9H8.2L11,29.5c0.1-0.6-0.4-1.1-0.9-1.2c-0.6-0.1-1.1,0.4-1.2,0.9L6.9,47H6.6c-0.3,0-0.5-0.2-0.5-0.5v-16
	c0-3,2.5-5.5,5.5-5.5h7c3,0,5.5,2.5,5.5,5.5V46.6z"/>
<path class="st2" d="M45.6,46.3c-0.8,0-1.5,0.3-2,0.9l-4,4.2h-4.1l-4-4.2c-1.1-1.2-2.9-1.2-4.1-0.1c-1.2,1.1-1.2,2.9-0.1,4.1
	l4.6,4.9v14.2c0,1.5,1.3,2.8,2.8,2.8h5.6c1.5,0,2.8-1.3,2.8-2.8v-5.9c0-0.6-0.5-1.1-1.1-1.1c-0.6,0-1.1,0.5-1.1,1.1v5.9
	c0,0.4-0.3,0.7-0.7,0.7h-1.8v-8.9c0-0.6-0.5-1.1-1.1-1.1c-0.6,0-1.1,0.5-1.1,1.1v8.9h-1.7c-0.4,0-0.7-0.3-0.7-0.7V55.6
	c0-0.3-0.1-0.5-0.3-0.7l-4.9-5.2c-0.3-0.3-0.3-0.8,0-1c0.3-0.3,0.8-0.3,1,0l4.3,4.6c0.2,0.2,0.5,0.3,0.8,0.3h5.1
	c0.3,0,0.6-0.1,0.8-0.3l4.3-4.6c0.3-0.3,0.7-0.3,1,0c0.3,0.3,0.3,0.7,0,1l-4.9,5.2c-0.2,0.2-0.3,0.5-0.3,0.7v5.1
	c0,0.6,0.5,1.1,1.1,1.1s1.1-0.5,1.1-1.1v-4.7l4.6-4.9c1.1-1.2,1-3-0.1-4.1C47.1,46.6,46.4,46.3,45.6,46.3z"/>
</svg>
