<?xml version="1.0" encoding="utf-8"?>
<!-- Generator: Adobe Illustrator 26.0.3, SVG Export Plug-In . SVG Version: 6.00 Build 0)  -->
<svg version="1.1" id="Layer_1" xmlns="http://www.w3.org/2000/svg" xmlns:xlink="http://www.w3.org/1999/xlink" x="0px" y="0px"
	 viewBox="0 0 180 148" style="enable-background:new 0 0 180 148;" xml:space="preserve">
<style type="text/css">
	.st0{fill-rule:evenodd;clip-rule:evenodd;fill:#2ED13B;fill-opacity:0.1;}
	.st1{fill:none;}
	.st2{fill:#2ED13B;}
</style>
<path class="st0" d="M97.1,0.3c13.5-1.2,26.7,1,39.6,5.2c15.3,4.9,37.1,6.1,42.3,21.3c5.7,16.3-15.5,30.4-18.5,47.3
	c-2.3,12.9,6.7,25.9,3.1,38.4c-4,13.7-11,29.5-24.4,34.4c-13.8,5-27.4-9.3-42-10.2c-13.3-0.9-25.8,7.1-38.9,4.8
	c-16.2-2.8-33.7-6.9-44.4-19.3C2.7,109.4-0.2,91.1,0,74.1c0.2-16.9,2.8-35.6,14.7-47.6c11.7-11.7,31-9.1,46.8-14.1
	C73.6,8.5,84.4,1.5,97.1,0.3z"/>
<rect x="34" y="18" class="st1" width="107" height="107"/>
<g>
	<path class="st2" d="M136.1,34.4l-18.6-7.8c-2-0.9-4.4-0.9-6.4,0l-8.9,3.7c-0.8,0.3-1.2,1.3-0.8,2c0.3,0.8,1.2,1.2,2,0.8l8.9-3.7
		c1.3-0.5,2.7-0.5,4,0l18.6,7.8c1.8,0.8,3,2.5,3,4.3v67c0,2.6-2.2,4.7-5,4.7h-2.5c-0.9,0-1.6,0.7-1.6,1.6c0,0.9,0.7,1.6,1.6,1.6h2.5
		c4.5,0,8.1-3.5,8.1-7.9v-67C141,38.5,139.1,35.6,136.1,34.4z"/>
	<path class="st2" d="M123.5,113.4H97.2c1.1-1.2,1.7-2.8,1.7-4.5c0-1.7-0.6-3.2-1.6-4.3c0.6-0.3,1.2-0.7,1.7-1.2c1.3-1.3,2-3,2-4.8
		c0-1.7-0.6-3.3-1.7-4.5c0.5-0.3,1-0.7,1.5-1.1c1.3-1.3,2-3,2-4.8c0-1.7-0.6-3.3-1.7-4.5c0.5-0.3,1-0.7,1.5-1.1c1.3-1.3,2-3,2-4.8
		c0-3.7-3-6.7-6.7-6.7h-7V41.6c0-1.9,1.2-3.6,3-4.3l2.9-1.2c0.8-0.3,1.2-1.3,0.8-2c-0.3-0.8-1.3-1.2-2-0.8l-2.9,1.2
		c-3,1.2-4.9,4.1-4.9,7.2v29.5H81c2.2-6.9,2-14.1-0.5-22.4c-0.4-1.3-1.2-2.3-2.2-3.1c-1.1-0.8-2.3-1.2-3.6-1.2
		c-1.7,0-3.3,0.7-4.5,1.9c-1.2,1.2-1.8,2.8-1.7,4.5c0.5,9.4-3.9,12.7-9.9,17.2c-2,1.5-4.1,3.1-6.3,5.1V71c0-0.9-0.7-1.6-1.6-1.6
		H35.6c-0.9,0-1.6,0.7-1.6,1.6v44.5c0,0.9,0.7,1.6,1.6,1.6h15.1c0.9,0,1.6-0.7,1.6-1.6v-3.9c3,0.3,5.2,0.9,7.3,2.5
		c1.4,1.1,3.1,1.6,4.8,1.6H92c1.1,0.5,2.4,0.8,3.7,0.8h27.9c0.9,0,1.6-0.7,1.6-1.6C125.1,114.1,124.4,113.4,123.5,113.4z
		 M61.4,111.5c-3-2.3-6.1-2.9-9.2-3.2V90.1c0-0.9-0.7-1.6-1.6-1.6c-0.9,0-1.6,0.7-1.6,1.6v23.8h-12V72.6h12v10.7
		c0,0.9,0.7,1.6,1.6,1.6c0.9,0,1.6-0.7,1.6-1.6v-5.7c2.6-2.9,5.4-5,8.1-7c6-4.5,11.7-8.7,11.1-19.8c0-0.8,0.2-1.6,0.8-2.2
		c0.6-0.6,1.3-0.9,2.2-0.9c0.6,0,1.3,0.2,1.8,0.6c0.5,0.4,0.9,0.9,1.1,1.5c2.6,8.5,2.6,15.7-0.1,22.5c-0.2,0.5-0.1,1,0.2,1.5
		c0.3,0.4,0.8,0.7,1.3,0.7h18.9c2,0,3.6,1.6,3.6,3.6c0,1-0.4,1.9-1.1,2.5c-0.7,0.7-1.6,1.1-2.6,1.1h-6.4c-0.9,0-1.6,0.7-1.6,1.6
		c0,0.9,0.7,1.6,1.6,1.6h4.7c2,0,3.6,1.6,3.6,3.6c0,1-0.4,1.9-1.1,2.6c-0.7,0.7-1.6,1.1-2.6,1.1h-4.7c-0.9,0-1.6,0.7-1.6,1.6
		c0,0.9,0.7,1.6,1.6,1.6h3c2,0,3.6,1.6,3.6,3.6c0,1-0.4,1.9-1.1,2.6c-0.7,0.7-1.6,1.1-2.6,1.1h-2.1h-2.6c-0.9,0-1.6,0.7-1.6,1.6
		c0,0.9,0.7,1.6,1.6,1.6h2.6c2,0,3.6,1.6,3.6,3.6c0,1-0.4,1.9-1.1,2.6c-0.6,0.6-1.6,1-2.4,1.1c-0.1,0-27.9,0-27.9,0
		C63.3,112.5,62.3,112.2,61.4,111.5z"/>
	<path class="st2" d="M119.9,42.3c0-3.3-2.7-6-6-6c-3.3,0-6,2.7-6,6c0,3.3,2.7,6,6,6C117.2,48.3,119.9,45.6,119.9,42.3z M111.1,42.3
		c0-1.6,1.3-2.8,2.8-2.8c1.6,0,2.8,1.3,2.8,2.8c0,1.6-1.3,2.8-2.8,2.8C112.4,45.1,111.1,43.9,111.1,42.3z"/>
	<path class="st2" d="M114.9,95.8h-2.8c-1.5,0-2.7-1.2-2.7-2.7c0-0.9-0.7-1.6-1.6-1.6c-0.9,0-1.6,0.7-1.6,1.6c0,3.2,2.5,5.7,5.7,5.8
		v3.5c0,0.9,0.7,1.6,1.6,1.6s1.6-0.7,1.6-1.6v-3.5c3.1-0.1,5.7-2.7,5.7-5.8v-2.2c0-2-1.3-3.8-3.2-4.4l-7.1-2.3c-0.6-0.2-1-0.8-1-1.4
		v-3.1c0-1.2,1-2.2,2.2-2.2h3.8c1.2,0,2.2,1,2.2,2.2c0,0.9,0.7,1.6,1.6,1.6c0.9,0,1.6-0.7,1.6-1.6c0-2.9-2.4-5.3-5.3-5.3h-0.3v-3.5
		c0-0.9-0.7-1.6-1.6-1.6s-1.6,0.7-1.6,1.6v3.5h-0.3c-2.9,0-5.3,2.4-5.3,5.3v3.1c0,2,1.3,3.8,3.2,4.4l7.1,2.3c0.6,0.2,1,0.8,1,1.4
		v2.2C117.6,94.6,116.4,95.8,114.9,95.8z"/>
</g>
</svg>
