<?xml version="1.0" encoding="utf-8"?>
<!-- Generator: Adobe Illustrator 26.0.3, SVG Export Plug-In . SVG Version: 6.00 Build 0)  -->
<svg version="1.1" id="Layer_1" xmlns="http://www.w3.org/2000/svg" xmlns:xlink="http://www.w3.org/1999/xlink" x="0px" y="0px"
	 viewBox="0 0 207 173" style="enable-background:new 0 0 207 173;" xml:space="preserve">
<style type="text/css">
	.st0{fill-rule:evenodd;clip-rule:evenodd;fill:#2ED13B;fill-opacity:0.1;}
	.st1{fill:none;}
	.st2{fill:#2ED13B;}
</style>
<path class="st0" d="M1,98.7c2.5-18.9,26-26.4,36.4-42.4C48.7,38.8,44.5,8.5,64.1,1.5c19.5-6.9,37.7,14.2,54.9,25.8
	c12.7,8.5,19.4,22.3,31.1,32c17.9,14.8,49.4,17,55.4,39.4c5.8,21.6-11.3,45.2-29.3,58.4c-16.4,12.1-39.1,3.7-59.3,6.6
	c-15.4,2.2-29.5,10.3-44.9,8.1c-17.6-2.6-34.9-8.8-47.3-21.5C11.2,136.3-1.6,117.9,1,98.7z"/>
<rect x="38" y="35" class="st1" width="111" height="111"/>
<g>
	<path class="st2" d="M147.4,114.9c0.9,0,1.6-0.7,1.6-1.6v-3.1c0-3.2-2.4-5.8-5.4-5.8H141V101c0-2.3-1.9-4.2-4.2-4.2h-13.1
		c-2.3,0-4.2,1.9-4.2,4.2v8.7c-11.7-1.4-26.2-1.4-38,0V101c0-2.3-1.9-4.2-4.2-4.2h-1c8.9-5.4,18.9-12.8,26.7-20l5.1,7
		c1.4,1.9,4,2.3,5.9,0.9l10.6-7.7c0,0,0,0,0,0c1.9-1.4,2.3-4,0.9-5.9l-2-2.7l2.1-1.5c2.4-1.8,2.9-5.3,1-7.8l-8.8-12.1
		c-1.9-2.6-5.4-3.2-7.8-1.5l-2.1,1.5l-2-2.7c-1.4-1.9-4-2.3-5.9-0.9l-10.6,7.7c-1.9,1.4-2.3,4-0.9,5.9l5.1,7
		c-10.3,5.8-22,14.3-30.7,22.3l-3.8-5.2c-2.1-2.9-6.2-3.6-9.1-1.4l-6.9,5c-2.9,2.1-3.6,6.2-1.4,9.1l0.6,0.8l-2.1,1.5
		c-2.5,1.8-2.8,5.3-1,7.8l8.8,12.1c1,1.3,2.4,2.2,3.9,2.4v6.5c0,3.2,2.4,5.8,5.4,5.8h2.6v3.3c0,2.3,1.9,4.2,4.2,4.2h13.1
		c2.3,0,4.2-1.9,4.2-4.2v-8.7c4.6,0.5,9.8,0.9,15.2,1c0,0,0,0,0,0c0.9,0,1.6-0.7,1.6-1.6c0-0.9-0.7-1.6-1.6-1.7
		c-5.4-0.1-10.6-0.5-15.2-1v-9.3c11.5-1.4,26.2-1.4,38,0v9.3c-4.6,0.6-9.8,0.9-15.2,1c-0.9,0-1.6,0.8-1.6,1.7c0,0.9,0.7,1.6,1.6,1.6
		c0,0,0,0,0,0c5.3-0.1,10.5-0.4,15.2-1v8.7c0,2.3,1.9,4.2,4.2,4.2h13.1c2.3,0,4.2-1.9,4.2-4.2v-3.3h2.6c3,0,5.4-2.6,5.4-5.8v-4.3
		c0-0.9-0.7-1.6-1.6-1.6c-0.9,0-1.6,0.7-1.6,1.6v4.3c0,1.4-1,2.5-2.2,2.5H141v-20h2.6c1.2,0,2.2,1.2,2.2,2.5v3.1
		C145.7,114.1,146.5,114.9,147.4,114.9z M111.8,48.1c0.9-0.7,2.4-0.3,3.2,0.8l8.8,12.1c0.8,1.1,0.7,2.6-0.3,3.3l-2.1,1.5
		c-1.3-1.8-10.4-14.4-11.8-16.2L111.8,48.1z M91.1,55.1c-0.3-0.4-0.2-1.1,0.2-1.4l10.6-7.7c0.4-0.3,1.1-0.2,1.4,0.2
		c0.7,0.9,15.8,21.8,16.6,22.8c0,0,0,0,0,0l2.9,4c0.3,0.4,0.2,1.1-0.2,1.4l-10.6,7.7c-0.4,0.3-1,0.2-1.4-0.2
		C109.9,81,91.8,56.1,91.1,55.1z M95.5,66.6l5.5,7.5C92.5,82,80.6,90.7,70.2,96.5L64.8,89C73.2,81.1,85.1,72.5,95.5,66.6z
		 M51.9,110.1v5.2c-0.5-0.2-0.9-0.5-1.3-1l-8.8-12.1c-0.8-1.2-0.7-2.6,0.3-3.3l2.1-1.5c0.3,0.4,2.3,3.1,8,11
		C52,108.9,51.9,109.5,51.9,110.1z M59.9,127.6h-2.6c-1.2,0-2.2-1.2-2.2-2.5c0-1.5,0-13.5,0-15c0-0.6,0.2-1.2,0.6-1.7
		c0.4-0.6,1-0.8,1.6-0.8h2.6L59.9,127.6L59.9,127.6z M59.9,101v3.3h-2.6c-0.1,0-0.3,0-0.4,0c0,0,0,0-0.1,0c-1,0.1-1.9,0.5-2.7,1.1
		l-9.8-13.5c-1.1-1.5-0.7-3.5,0.7-4.6l6.9-5c1.5-1.1,3.5-0.7,4.6,0.7c1.2,1.6,8.7,11.9,10,13.7h-2.3C61.8,96.8,59.9,98.7,59.9,101z
		 M78.2,134.2c0,0.5-0.4,1-1,1H64.1c-0.5,0-1-0.4-1-1c0-1.5,0-32.2,0-33.2c0-0.5,0.4-1,1-1c3.3,0,5.1,0,6.1,0c0.7,0,0.9,0,0.9,0
		c1,0,2.8,0,6.1,0c0.5,0,1,0.4,1,1C78.2,103,78.2,133,78.2,134.2z M137.7,134.2c0,0.5-0.4,1-1,1h-13.1c-0.5,0-1-0.4-1-1V101
		c0-0.5,0.4-1,1-1h13.1c0.5,0,1,0.4,1,1C137.7,103,137.7,133.1,137.7,134.2z"/>
</g>
</svg>
