<?xml version="1.0" encoding="utf-8"?>
<!-- Generator: Adobe Illustrator 26.0.3, SVG Export Plug-In . SVG Version: 6.00 Build 0)  -->
<svg version="1.1" id="Layer_1" xmlns="http://www.w3.org/2000/svg" xmlns:xlink="http://www.w3.org/1999/xlink" x="0px" y="0px"
	 viewBox="0 0 179 160" style="enable-background:new 0 0 179 160;" xml:space="preserve">
<style type="text/css">
	.st0{fill-rule:evenodd;clip-rule:evenodd;fill:#2ED13B;fill-opacity:0.1;}
	.st1{fill:#2ED13B;}
</style>
<path class="st0" d="M97.9,5.4c23.7,1.2,50.4-5.5,66.7,11.5c17.3,18.1,16,45.6,11.2,70.1c-5,25.9-13.9,53-37.5,65.5
	c-24.5,12.9-53.9,7.5-79.1-4c-25.7-11.8-48.5-30.7-55.8-57.8C-4.1,62.6,0,29.3,21.8,9.6C41.5-8.3,71.2,4,97.9,5.4z"/>
<path class="st1" d="M89.5,29.7c-9.6,0-18.8,3.8-25.6,10.6c-6.8,6.8-10.6,16-10.6,25.6c0,24.5,33.7,63.2,35.1,64.8
	c0.1,0.1,0.3,0.3,0.5,0.4c0.2,0.1,0.4,0.1,0.6,0.2c0.2,0,0.4,0,0.6-0.1c0.2-0.1,0.4-0.2,0.5-0.3c0.1-0.1,0.3-0.3,0.3-0.5
	s0.1-0.4,0.1-0.6c0-0.2,0-0.4-0.1-0.6c-0.1-0.2-0.2-0.4-0.3-0.5c-0.3-0.4-34.4-39.4-34.4-62.9c0-8.8,3.5-17.3,9.8-23.6
	c6.2-6.2,14.7-9.8,23.6-9.8s17.3,3.5,23.6,9.8c6.2,6.2,9.8,14.7,9.8,23.6c0,18-20.6,45.8-29.5,56.9c-0.1,0.2-0.2,0.3-0.3,0.5
	c-0.1,0.2-0.1,0.4,0,0.6s0.1,0.4,0.2,0.5c0.1,0.2,0.2,0.3,0.4,0.4c0.1,0.1,0.3,0.2,0.5,0.3c0.2,0.1,0.4,0.1,0.6,0
	c0.2,0,0.4-0.1,0.5-0.2c0.2-0.1,0.3-0.2,0.4-0.4c11.3-14.1,30.1-40.5,30.1-58.7c0-9.6-3.8-18.8-10.6-25.6
	C108.3,33.6,99.1,29.8,89.5,29.7z"/>
<path class="st1" d="M79.6,54.6c0.2-0.1,0.3-0.3,0.5-0.4c0.3-0.2,0.5-0.6,0.5-1c0-0.4-0.1-0.8-0.3-1c-0.2-0.3-0.6-0.5-1-0.5
	c-0.4,0-0.8,0.1-1.1,0.3c-0.2,0.2-0.4,0.3-0.6,0.5c-0.1,0.1-0.3,0.3-0.3,0.4c-0.1,0.2-0.1,0.4-0.1,0.5c0,0.2,0,0.4,0.1,0.6
	c0.1,0.2,0.2,0.3,0.3,0.5c0.1,0.1,0.3,0.3,0.4,0.3c0.2,0.1,0.4,0.1,0.5,0.1c0.2,0,0.4,0,0.6-0.1S79.5,54.7,79.6,54.6L79.6,54.6z"/>
<path class="st1" d="M75.8,56.5c-0.3-0.2-0.7-0.2-1.1-0.1s-0.7,0.3-0.9,0.7c-2.1,3.7-2.8,8-2,12.1c0.8,4.1,3,7.9,6.2,10.6
	c3.2,2.7,7.3,4.2,11.6,4.1c4.2,0,8.3-1.5,11.5-4.3c3.2-2.7,5.4-6.5,6.1-10.7c0.7-4.2-0.1-8.4-2.2-12.1c-2.1-3.6-5.5-6.4-9.4-7.9
	c-4-1.4-8.3-1.4-12.3,0c-0.4,0.1-0.7,0.4-0.8,0.8c-0.2,0.4-0.2,0.8,0,1.1c0.1,0.4,0.4,0.7,0.8,0.8c0.4,0.2,0.8,0.2,1.1,0
	c3.3-1.2,7-1.2,10.3,0c3.3,1.2,6.1,3.5,7.9,6.6c1.8,3.1,2.4,6.7,1.8,10.1c-0.6,3.5-2.4,6.7-5.1,8.9c-2.7,2.3-6.1,3.6-9.7,3.6
	c-3.5,0-7-1.2-9.7-3.5c-2.7-2.3-4.6-5.4-5.2-8.9c-0.6-3.5,0-7.1,1.7-10.2c0.1-0.2,0.2-0.3,0.2-0.5c0-0.2,0-0.4,0-0.6
	c-0.1-0.2-0.1-0.4-0.3-0.5C76.2,56.8,76,56.6,75.8,56.5z"/>
</svg>
