<?xml version="1.0" encoding="utf-8"?>
<!-- Generator: Adobe Illustrator 26.0.3, SVG Export Plug-In . SVG Version: 6.00 Build 0)  -->
<svg version="1.1" id="Layer_1" xmlns="http://www.w3.org/2000/svg" xmlns:xlink="http://www.w3.org/1999/xlink" x="0px" y="0px"
	 viewBox="0 0 172 151" style="enable-background:new 0 0 172 151;" xml:space="preserve">
<style type="text/css">
	.st0{fill-rule:evenodd;clip-rule:evenodd;fill:#2ED13B;fill-opacity:0.1;}
	.st1{fill:#2ED13B;}
</style>
<path class="st0" d="M91.4,11c23.9-4,51.8-20.1,69.9-3.9c18.1,16.2,8.6,46.2,4.1,70.2c-3.5,18.6-12.8,34.7-26.2,48
	c-13.4,13.3-29.1,26.3-47.9,25.7c-18.5-0.6-30.7-16.9-45.1-28.5C28.9,108.4,1.2,99.7,0,77.2c-1.1-22.5,23.2-36.9,41.5-50.1
	C56.2,16.5,73.5,14,91.4,11z"/>
<path class="st1" d="M90,124.3c-0.4,0-0.7-0.1-1-0.4c-0.3-0.3-0.4-0.6-0.4-1V86.2c0-0.4,0.1-0.7,0.4-1c0.3-0.3,0.6-0.4,1-0.4
	s0.7,0.1,1,0.4c0.3,0.3,0.4,0.6,0.4,1v36.8c0,0.4-0.1,0.7-0.4,1C90.7,124.2,90.4,124.3,90,124.3z"/>
<path class="st1" d="M90,69.2c-0.4,0-0.7-0.1-1-0.4c-0.3-0.3-0.4-0.6-0.4-1V31.1c0-0.4,0.1-0.7,0.4-1c0.3-0.3,0.6-0.4,1-0.4
	s0.7,0.1,1,0.4c0.3,0.3,0.4,0.6,0.4,1v36.8c0,0.4-0.1,0.7-0.4,1C90.7,69,90.4,69.2,90,69.2z"/>
<path class="st1" d="M90,45.5c-0.4,0-0.7-0.1-1-0.4l-7.8-7.8c-0.2-0.3-0.4-0.6-0.4-1c0-0.4,0.1-0.7,0.4-0.9c0.3-0.3,0.6-0.4,0.9-0.4
	c0.4,0,0.7,0.1,1,0.4l6.9,6.9l6.9-6.9c0.3-0.2,0.6-0.4,1-0.4c0.4,0,0.7,0.1,0.9,0.4c0.3,0.3,0.4,0.6,0.4,0.9c0,0.4-0.1,0.7-0.4,1
	L91,45.1C90.7,45.4,90.4,45.5,90,45.5z"/>
<path class="st1" d="M90,57.3c-0.4,0-0.7-0.1-1-0.4l-7.8-7.8c-0.1-0.1-0.2-0.3-0.3-0.4c-0.1-0.2-0.1-0.3-0.1-0.5
	c0-0.2,0-0.4,0.1-0.5s0.2-0.3,0.3-0.4c0.1-0.1,0.3-0.2,0.4-0.3c0.2-0.1,0.3-0.1,0.5-0.1c0.2,0,0.4,0,0.5,0.1
	c0.2,0.1,0.3,0.2,0.4,0.3l6.9,6.9l6.9-6.9c0.1-0.1,0.3-0.2,0.4-0.3c0.2-0.1,0.3-0.1,0.5-0.1c0.2,0,0.4,0,0.5,0.1
	c0.2,0.1,0.3,0.2,0.4,0.3c0.1,0.1,0.2,0.3,0.3,0.4c0.1,0.2,0.1,0.3,0.1,0.5c0,0.2,0,0.4-0.1,0.5c-0.1,0.2-0.2,0.3-0.3,0.4L91,56.9
	C90.7,57.2,90.4,57.3,90,57.3z"/>
<path class="st1" d="M97.8,119c-0.4,0-0.7-0.1-1-0.4l-6.9-6.9l-6.9,6.9c-0.3,0.2-0.6,0.4-1,0.4c-0.4,0-0.7-0.1-0.9-0.4
	c-0.3-0.3-0.4-0.6-0.4-0.9c0-0.4,0.1-0.7,0.4-0.9l7.8-7.8c0.3-0.3,0.6-0.4,1-0.4c0.4,0,0.7,0.1,1,0.4l7.8,7.8
	c0.2,0.2,0.3,0.4,0.4,0.7c0.1,0.3,0,0.5-0.1,0.8c-0.1,0.2-0.3,0.5-0.5,0.6C98.4,119,98.1,119,97.8,119L97.8,119z"/>
<path class="st1" d="M97.8,107.2c-0.4,0-0.7-0.1-1-0.4L90,99.9l-6.9,6.9c-0.3,0.2-0.6,0.4-1,0.4s-0.7-0.1-0.9-0.4
	c-0.3-0.3-0.4-0.6-0.4-0.9c0-0.4,0.1-0.7,0.4-1l7.8-7.8c0.3-0.3,0.6-0.4,1-0.4c0.4,0,0.7,0.1,1,0.4l7.8,7.8c0.2,0.2,0.3,0.4,0.4,0.7
	c0.1,0.3,0,0.5-0.1,0.8c-0.1,0.2-0.3,0.5-0.5,0.6C98.4,107.1,98.1,107.2,97.8,107.2L97.8,107.2z"/>
<path class="st1" d="M80.8,78.4H44.1c-0.4,0-0.7-0.1-1-0.4c-0.3-0.3-0.4-0.6-0.4-1s0.1-0.7,0.4-1c0.3-0.3,0.6-0.4,1-0.4h36.8
	c0.4,0,0.7,0.1,1,0.4c0.3,0.3,0.4,0.6,0.4,1s-0.1,0.7-0.4,1C81.5,78.2,81.2,78.4,80.8,78.4z"/>
<path class="st1" d="M135.9,78.4H99.2c-0.4,0-0.7-0.1-1-0.4c-0.3-0.3-0.4-0.6-0.4-1s0.1-0.7,0.4-1c0.3-0.3,0.6-0.4,1-0.4h36.8
	c0.4,0,0.7,0.1,1,0.4c0.3,0.3,0.4,0.6,0.4,1s-0.1,0.7-0.4,1C136.6,78.2,136.3,78.4,135.9,78.4z"/>
<path class="st1" d="M130.7,86.2c-0.4,0-0.7-0.1-1-0.4l-7.8-7.8c-0.3-0.3-0.4-0.6-0.4-1s0.1-0.7,0.4-1l7.8-7.8
	c0.3-0.2,0.6-0.4,0.9-0.4c0.4,0,0.7,0.1,0.9,0.4c0.3,0.3,0.4,0.6,0.4,0.9c0,0.4-0.1,0.7-0.4,1l-6.9,6.9l6.9,6.9
	c0.2,0.2,0.3,0.4,0.4,0.7s0,0.5-0.1,0.8c-0.1,0.2-0.3,0.5-0.5,0.6C131.2,86.1,131,86.2,130.7,86.2L130.7,86.2z"/>
<path class="st1" d="M118.8,86.2c-0.4,0-0.7-0.1-1-0.4l-7.8-7.8c-0.3-0.3-0.4-0.6-0.4-1s0.1-0.7,0.4-1l7.8-7.8
	c0.3-0.2,0.6-0.4,1-0.4c0.4,0,0.7,0.1,0.9,0.4c0.2,0.3,0.4,0.6,0.4,0.9c0,0.4-0.1,0.7-0.4,1l-6.9,6.9l6.9,6.9
	c0.2,0.2,0.3,0.4,0.4,0.7c0.1,0.3,0,0.5-0.1,0.8c-0.1,0.2-0.3,0.5-0.5,0.6C119.4,86.1,119.1,86.2,118.8,86.2L118.8,86.2z"/>
<path class="st1" d="M49.3,86.2c-0.3,0-0.5-0.1-0.8-0.2c-0.2-0.1-0.4-0.4-0.5-0.6c-0.1-0.2-0.1-0.5-0.1-0.8s0.2-0.5,0.4-0.7l6.9-6.9
	l-6.9-6.9c-0.2-0.3-0.4-0.6-0.4-1c0-0.4,0.1-0.7,0.4-0.9c0.3-0.3,0.6-0.4,0.9-0.4c0.4,0,0.7,0.1,1,0.4l7.8,7.8
	c0.3,0.3,0.4,0.6,0.4,1c0,0.4-0.1,0.7-0.4,1l-7.8,7.8C50,86,49.7,86.2,49.3,86.2z"/>
<path class="st1" d="M61.1,86.2c-0.3,0-0.5-0.1-0.8-0.2c-0.2-0.1-0.4-0.4-0.5-0.6c-0.1-0.2-0.1-0.5-0.1-0.8c0.1-0.3,0.2-0.5,0.4-0.7
	l6.9-6.9l-6.9-6.9c-0.1-0.1-0.2-0.3-0.3-0.4c-0.1-0.2-0.1-0.3-0.1-0.5c0-0.2,0-0.4,0.1-0.5c0.1-0.2,0.2-0.3,0.3-0.4s0.3-0.2,0.4-0.3
	c0.2-0.1,0.3-0.1,0.5-0.1c0.2,0,0.4,0,0.5,0.1c0.2,0.1,0.3,0.2,0.4,0.3l7.8,7.8c0.3,0.3,0.4,0.6,0.4,1c0,0.4-0.1,0.7-0.4,1l-7.8,7.8
	c-0.1,0.1-0.3,0.2-0.4,0.3C61.5,86.2,61.3,86.2,61.1,86.2z"/>
<path class="st1" d="M122.5,110.8c-0.4,0-0.7-0.1-1-0.4l-26-26c-0.3-0.3-0.4-0.6-0.4-1s0.1-0.7,0.4-1c0.3-0.3,0.6-0.4,1-0.4
	s0.7,0.1,1,0.4l26,26c0.2,0.2,0.3,0.4,0.4,0.7c0.1,0.3,0,0.5-0.1,0.8c-0.1,0.2-0.3,0.5-0.5,0.6C123,110.8,122.8,110.8,122.5,110.8z"
	/>
<path class="st1" d="M83.5,71.9c-0.4,0-0.7-0.1-1-0.4l-26-26c-0.2-0.3-0.4-0.6-0.4-1c0-0.4,0.1-0.7,0.4-0.9c0.3-0.3,0.6-0.4,0.9-0.4
	c0.4,0,0.7,0.1,1,0.4l26,26c0.2,0.2,0.3,0.4,0.4,0.7c0.1,0.3,0,0.5-0.1,0.8c-0.1,0.2-0.3,0.5-0.5,0.6C84,71.8,83.8,71.9,83.5,71.9
	L83.5,71.9z"/>
<path class="st1" d="M66.8,55.1H55.7c-0.4,0-0.7-0.1-1-0.4c-0.3-0.3-0.4-0.6-0.4-1c0-0.4,0.1-0.7,0.4-1c0.3-0.3,0.6-0.4,1-0.4h9.7
	v-9.7c0-0.4,0.1-0.7,0.4-1c0.3-0.3,0.6-0.4,1-0.4c0.4,0,0.7,0.1,1,0.4c0.3,0.3,0.4,0.6,0.4,1v11.1c0,0.4-0.1,0.7-0.4,1
	C67.5,55,67.1,55.1,66.8,55.1z"/>
<path class="st1" d="M75.1,63.5H64.1c-0.4,0-0.7-0.1-1-0.4c-0.3-0.3-0.4-0.6-0.4-1c0-0.4,0.1-0.7,0.4-1c0.3-0.3,0.6-0.4,1-0.4h9.7
	v-9.7c0-0.4,0.1-0.7,0.4-1c0.3-0.3,0.6-0.4,1-0.4s0.7,0.1,1,0.4c0.3,0.3,0.4,0.6,0.4,1v11.1c0,0.4-0.1,0.7-0.4,1
	C75.8,63.3,75.5,63.5,75.1,63.5z"/>
<path class="st1" d="M113.2,112.7c-0.4,0-0.7-0.1-1-0.4c-0.3-0.3-0.4-0.6-0.4-1v-11.1c0-0.4,0.1-0.7,0.4-1c0.3-0.3,0.6-0.4,1-0.4
	h11.1c0.4,0,0.7,0.1,1,0.4c0.3,0.3,0.4,0.6,0.4,1c0,0.4-0.1,0.7-0.4,1c-0.3,0.3-0.6,0.4-1,0.4h-9.7v9.7c0,0.4-0.1,0.7-0.4,1
	C113.9,112.5,113.6,112.7,113.2,112.7z"/>
<path class="st1" d="M104.9,104.3c-0.4,0-0.7-0.1-1-0.4c-0.3-0.3-0.4-0.6-0.4-1V91.9c0-0.4,0.1-0.7,0.4-1c0.3-0.3,0.6-0.4,1-0.4
	h11.1c0.4,0,0.7,0.1,1,0.4c0.3,0.3,0.4,0.6,0.4,1s-0.1,0.7-0.4,1c-0.3,0.3-0.6,0.4-1,0.4h-9.7v9.7c0,0.4-0.1,0.7-0.4,1
	C105.6,104.2,105.2,104.3,104.9,104.3z"/>
<path class="st1" d="M57.5,110.8c-0.3,0-0.5-0.1-0.8-0.2c-0.2-0.1-0.4-0.4-0.5-0.6c-0.1-0.2-0.1-0.5-0.1-0.8s0.2-0.5,0.4-0.7l26-26
	c0.3-0.3,0.6-0.4,1-0.4c0.4,0,0.7,0.1,1,0.4c0.3,0.3,0.4,0.6,0.4,1s-0.1,0.7-0.4,1l-26,26C58.2,110.7,57.9,110.8,57.5,110.8z"/>
<path class="st1" d="M96.5,71.9c-0.3,0-0.5-0.1-0.8-0.2c-0.2-0.1-0.4-0.4-0.5-0.6c-0.1-0.2-0.1-0.5-0.1-0.8s0.2-0.5,0.4-0.7l26-26
	c0.3-0.2,0.6-0.4,1-0.4c0.4,0,0.7,0.1,0.9,0.4c0.3,0.3,0.4,0.6,0.4,0.9c0,0.4-0.1,0.7-0.4,1l-26,26C97.2,71.7,96.9,71.9,96.5,71.9z"
	/>
<path class="st1" d="M124.3,55.1h-11.1c-0.4,0-0.7-0.1-1-0.4c-0.3-0.3-0.4-0.6-0.4-1V42.7c0-0.4,0.1-0.7,0.4-1
	c0.3-0.3,0.6-0.4,1-0.4c0.4,0,0.7,0.1,1,0.4c0.3,0.3,0.4,0.6,0.4,1v9.7h9.7c0.4,0,0.7,0.1,1,0.4c0.3,0.3,0.4,0.6,0.4,1
	c0,0.4-0.1,0.7-0.4,1C125,55,124.7,55.1,124.3,55.1z"/>
<path class="st1" d="M115.9,63.5h-11.1c-0.4,0-0.7-0.1-1-0.4c-0.3-0.3-0.4-0.6-0.4-1V51.1c0-0.4,0.1-0.7,0.4-1
	c0.3-0.3,0.6-0.4,1-0.4c0.4,0,0.7,0.1,1,0.4c0.3,0.3,0.4,0.6,0.4,1v9.7h9.7c0.4,0,0.7,0.1,1,0.4c0.3,0.3,0.4,0.6,0.4,1
	c0,0.4-0.1,0.7-0.4,1C116.6,63.3,116.3,63.5,115.9,63.5z"/>
<path class="st1" d="M66.8,112.7c-0.4,0-0.7-0.1-1-0.4c-0.3-0.3-0.4-0.6-0.4-1v-9.7h-9.7c-0.4,0-0.7-0.1-1-0.4
	c-0.3-0.3-0.4-0.6-0.4-1c0-0.4,0.1-0.7,0.4-1c0.3-0.3,0.6-0.4,1-0.4h11.1c0.4,0,0.7,0.1,1,0.4c0.3,0.3,0.4,0.6,0.4,1v11.1
	c0,0.4-0.1,0.7-0.4,1C67.5,112.5,67.1,112.7,66.8,112.7z"/>
<path class="st1" d="M75.1,104.3c-0.4,0-0.7-0.1-1-0.4c-0.3-0.3-0.4-0.6-0.4-1v-9.7h-9.7c-0.4,0-0.7-0.1-1-0.4
	c-0.3-0.3-0.4-0.6-0.4-1s0.1-0.7,0.4-1c0.3-0.3,0.6-0.4,1-0.4h11.1c0.4,0,0.7,0.1,1,0.4c0.3,0.3,0.4,0.6,0.4,1v11.1
	c0,0.4-0.1,0.7-0.4,1C75.8,104.2,75.5,104.3,75.1,104.3z"/>
<path class="st1" d="M90,87.5c-2.1,0-4.1-0.6-5.9-1.8c-1.7-1.2-3.1-2.8-3.9-4.7c-0.8-1.9-1-4-0.6-6.1c0.4-2,1.4-3.9,2.9-5.4
	c1.5-1.5,3.4-2.5,5.4-2.9c2-0.4,4.2-0.2,6.1,0.6c1.9,0.8,3.6,2.1,4.7,3.9c1.2,1.7,1.8,3.8,1.8,5.9c0,2.8-1.1,5.5-3.1,7.4
	C95.5,86.4,92.8,87.5,90,87.5z M90,69.2c-1.6,0-3.1,0.5-4.4,1.3c-1.3,0.9-2.3,2.1-2.9,3.5c-0.6,1.4-0.7,3-0.4,4.5
	c0.3,1.5,1,2.9,2.1,4c1.1,1.1,2.5,1.8,4,2.1c1.5,0.3,3.1,0.1,4.5-0.4c1.4-0.6,2.7-1.6,3.5-2.9c0.9-1.3,1.3-2.8,1.3-4.4
	c0-2.1-0.8-4.1-2.3-5.5C94.1,70,92.1,69.2,90,69.2z"/>
</svg>
