<?xml version="1.0" encoding="utf-8"?>
<!-- Generator: Adobe Illustrator 26.0.3, SVG Export Plug-In . SVG Version: 6.00 Build 0)  -->
<svg version="1.1" id="Layer_1" xmlns="http://www.w3.org/2000/svg" xmlns:xlink="http://www.w3.org/1999/xlink" x="0px" y="0px"
	 viewBox="0 0 175 187" style="enable-background:new 0 0 175 187;" xml:space="preserve">
<style type="text/css">
	.st0{fill-rule:evenodd;clip-rule:evenodd;fill:#2ED13B;fill-opacity:0.1;}
	.st1{fill:none;}
	.st2{fill:#2ED13B;}
</style>
<path class="st0" d="M87.3,1.5c19.9,4.1,29.8,25.5,45.2,38.8c13.7,11.8,33.4,17.8,39.9,34.6c6.6,17.1-0.9,35.8-6,53.4
	c-5.3,18.3-8.5,39.3-24,50.2c-15.5,10.9-36.6,9.5-55.1,5.3c-15.9-3.6-25.6-18.3-39.4-26.9c-15.5-9.6-39.4-9.5-46.3-26.4
	c-6.9-16.8,10.6-33.4,14.5-51.1c4.5-20.7-4.3-45.6,10-61.2C40.8,2.2,66.1-2.9,87.3,1.5z"/>
<rect x="40" y="48" class="st1" width="96" height="96"/>
<g>
	<path class="st2" d="M135.8,84.9c-0.5-1.5-1.7-2.5-3.3-2.6l-29.4-2.7L97.4,66c-0.3-0.7-1.1-1-1.8-0.7c-0.7,0.3-1,1.1-0.7,1.8
		l6.1,14.3c0.2,0.5,0.6,0.8,1.2,0.8l30.2,2.8c0.6,0.1,0.8,0.5,0.9,0.7c0.1,0.2,0.2,0.7-0.3,1.1l-22.8,20c-0.4,0.3-0.6,0.9-0.4,1.4
		l6.7,29.6c0.1,0.6-0.2,0.9-0.4,1c-0.2,0.1-0.6,0.4-1.1,0.1l-26.1-15.5c-0.4-0.3-1-0.3-1.4,0l-26.1,15.5c-0.5,0.3-0.9,0.1-1.1-0.1
		s-0.5-0.5-0.4-1l3.4-15.3c0.2-0.8-0.3-1.5-1.1-1.7c-0.8-0.2-1.5,0.3-1.7,1.1L57,137.2c-0.3,1.5,0.2,3,1.5,3.9
		c1.3,0.9,2.9,1,4.2,0.2L88,126.2l25.3,15.1c0.6,0.4,1.3,0.5,2,0.5c0.8,0,1.6-0.2,2.2-0.7c1.3-0.9,1.8-2.4,1.5-3.9l-6.5-28.8
		L134.7,89C135.9,87.9,136.3,86.4,135.8,84.9z"/>
	<path class="st2" d="M94.8,60l-3.3-7.6c-0.6-1.4-2-2.3-3.5-2.3c-1.6,0-2.9,0.9-3.5,2.3L72.8,79.5l-29.3,2.7
		c-1.5,0.1-2.8,1.1-3.3,2.6c-0.5,1.5-0.1,3,1.1,4.1l22.1,19.5l-1.7,7.5c-0.2,0.8,0.3,1.5,1.1,1.7c0.1,0,0.2,0,0.3,0
		c0.6,0,1.2-0.4,1.4-1.1l1.9-8.3c0.1-0.5-0.1-1-0.4-1.4l-22.8-20c-0.5-0.4-0.4-0.9-0.3-1.1c0.1-0.2,0.3-0.6,0.9-0.7l30.2-2.8
		c0.5,0,1-0.4,1.2-0.8l12-27.8C87.3,53,87.8,53,88,53c0.2,0,0.7,0.1,0.9,0.6l3.3,7.6c0.3,0.7,1.1,1,1.8,0.7
		C94.7,61.6,95.1,60.7,94.8,60z"/>
</g>
</svg>
