<?xml version="1.0" encoding="utf-8"?>
<!-- Generator: Adobe Illustrator 26.0.3, SVG Export Plug-In . SVG Version: 6.00 Build 0)  -->
<svg version="1.1" id="Layer_1" xmlns="http://www.w3.org/2000/svg" xmlns:xlink="http://www.w3.org/1999/xlink" x="0px" y="0px"
	 viewBox="0 0 161 191" style="enable-background:new 0 0 161 191;" xml:space="preserve">
<style type="text/css">
	.st0{fill-rule:evenodd;clip-rule:evenodd;fill:#2ED13B;fill-opacity:0.1;}
	.st1{fill:none;}
	.st2{fill:#2ED13B;}
</style>
<path class="st0" d="M81.9,1.7c21.2,4.2,34.9,23.6,49.8,39.3c12.2,12.8,25.9,25.6,28.8,43.1c2.8,16.4-10,30.5-13.6,46.8
	c-4.1,19.1,7.2,45.3-8.8,56.4c-16.2,11.2-37.4-5.9-56.3-11.4c-13.1-3.8-25.4-7.9-36.6-15.7c-11.5-7.9-21.3-17.3-28.4-29.3
	C8.2,115.9,0.3,100.4,0.1,83C-0.2,60.2-0.8,34,15.4,18C32,1.4,59-2.8,81.9,1.7z"/>
<rect x="31" y="46" class="st1" width="99" height="99"/>
<g>
	<path class="st2" d="M128.5,78.9c2.3,2.9,2,7.4-0.9,9.9c-2.7,2.2-6.4,1.7-8.6-0.9c-9.8-12.1-23.7-19.1-38.3-19.1h-0.2
		c-14.7,0.1-28.7,7.2-38.4,19.4c-2.1,2.7-5.9,3.2-8.6,1c-3-2.4-3.3-7-1-9.9c11.7-14.9,28.9-24.1,47.9-24.2h0.3
		c9.2,0,18.1,2.1,26.4,6.3c0.7,0.4,1,1.2,0.6,1.9c-0.4,0.7-1.2,1-1.9,0.6c-7.9-4-16.4-6-25.1-6h-0.3c-17.5,0.1-34.1,8.5-45.6,23.1
		c-1.4,1.7-1.1,4.5,0.6,5.8c1.4,1.2,3.3,0.9,4.5-0.5c10.2-13,25-20.5,40.6-20.5h0.2c15.5,0,30.3,7.3,40.6,20.2
		c1.1,1.4,3,1.7,4.5,0.5c1.7-1.4,1.9-4.1,0.5-5.8c-4.3-5.3-9.2-9.8-14.7-13.4c-0.7-0.4-0.9-1.3-0.4-2c0.4-0.7,1.3-0.9,2-0.4
		C118.8,68.7,124,73.4,128.5,78.9z"/>
	<path class="st2" d="M112.6,91.6c2.6,2.9,2.2,7.6-0.7,10.1c-2.6,2.1-6.2,1.8-8.4-0.8C97.3,94,89.3,90.2,80.6,90.2c0,0-0.1,0-0.1,0
		c-8.7,0-16.8,3.9-22.8,10.9c-2.2,2.6-5.8,2.9-8.4,0.9l0,0c-3-2.4-3.4-7.1-0.8-10.1c8.1-9.4,19.5-15.2,32-15.3
		C93,76.5,104.4,82.3,112.6,91.6z M110,99.4c1.7-1.4,1.9-4.2,0.4-5.9c-7.9-9-18.5-14-29.8-14c-0.1,0-0.1,0-0.2,0
		c-11.4,0.1-22,5.1-29.9,14.3c-0.7,0.8-1.1,2-1,3.1c0.1,1.1,0.6,2.1,1.4,2.8c0,0,0,0,0,0l0,0c1.4,1.1,3.2,0.9,4.4-0.5
		c6.6-7.6,15.5-11.9,25-11.9h0.2c9.5,0,18.4,4.1,25,11.7C106.8,100.4,108.7,100.5,110,99.4z"/>
	<path class="st2" d="M96.2,104c1.5,1.3,2.3,3.2,2.3,5.2c0,2.1-0.9,4.1-2.5,5.4c-2.4,2-5.6,1.8-7.8-0.1c-1.3-1.1-2.8-1.9-4.4-2.4
		c-0.8-0.2-1.2-1-1-1.8c0.2-0.8,1-1.2,1.8-1c2,0.6,3.8,1.6,5.4,3c1.2,1,2.8,1.1,4.1,0.1c1.9-1.5,1.9-4.7,0.1-6.2
		c-3.9-3.5-8.7-5.3-13.7-5.3h-0.1c-5.1,0-9.8,1.9-13.8,5.4c-1.8,1.6-1.7,4.7,0.2,6.2c1.2,1,2.9,0.9,4.1-0.1c1.8-1.6,4-2.8,6.3-3.3
		c0.8-0.2,1.6,0.3,1.7,1.1c0.2,0.8-0.3,1.6-1.1,1.8c-1.8,0.4-3.6,1.4-5.1,2.7c-2.2,2-5.4,2.1-7.8,0.2c-3.3-2.7-3.4-7.9-0.3-10.7
		c4.4-3.9,10-6.1,15.7-6.2h0.1C86.2,98,91.8,100.2,96.2,104z"/>
	<path class="st2" d="M80.5,120.8c4.1,0,7.5,3.4,7.5,7.5c0,4.1-3.4,7.5-7.5,7.5c-4.1,0-7.5-3.4-7.5-7.5
		C73,124.2,76.4,120.8,80.5,120.8z M85.1,128.3c0-2.5-2.1-4.6-4.6-4.6s-4.6,2.1-4.6,4.6c0,2.5,2.1,4.6,4.6,4.6
		S85.1,130.9,85.1,128.3z"/>
</g>
</svg>
